<svg width="16" height="17" viewBox="0 0 16 17" fill="none" xmlns="http://www.w3.org/2000/svg">
<path d="M1.81818 16.3636C1.31818 16.3636 0.890303 16.1858 0.534545 15.83C0.178788 15.4742 0.000606061 15.0461 0 14.5455V1.81818C0 1.31818 0.178182 0.890303 0.534545 0.534545C0.890909 0.178788 1.31879 0.000606061 1.81818 0H7.27273C7.5303 0 7.74636 0.0872728 7.92091 0.261818C8.09545 0.436364 8.18242 0.652121 8.18182 0.909091C8.18121 1.16606 8.09394 1.38212 7.92 1.55727C7.74606 1.73242 7.5303 1.81939 7.27273 1.81818H1.81818V14.5455H7.27273C7.5303 14.5455 7.74636 14.6327 7.92091 14.8073C8.09545 14.9818 8.18242 15.1976 8.18182 15.4545C8.18121 15.7115 8.09394 15.9276 7.92 16.1027C7.74606 16.2779 7.5303 16.3648 7.27273 16.3636H1.81818ZM12.8864 9.09091H6.36364C6.10606 9.09091 5.8903 9.00364 5.71636 8.82909C5.54242 8.65455 5.45515 8.43879 5.45455 8.18182C5.45394 7.92485 5.54121 7.70909 5.71636 7.53455C5.89152 7.36 6.10727 7.27273 6.36364 7.27273H12.8864L11.1818 5.56818C11.0152 5.40151 10.9318 5.19697 10.9318 4.95455C10.9318 4.71212 11.0152 4.5 11.1818 4.31818C11.3485 4.13636 11.5606 4.04151 11.8182 4.03364C12.0758 4.02576 12.2955 4.11303 12.4773 4.29545L15.7273 7.54545C15.9091 7.72727 16 7.93939 16 8.18182C16 8.42424 15.9091 8.63636 15.7273 8.81818L12.4773 12.0682C12.2955 12.25 12.0797 12.3373 11.83 12.33C11.5803 12.3227 11.3642 12.2279 11.1818 12.0455C11.0152 11.8636 10.9358 11.6479 10.9436 11.3982C10.9515 11.1485 11.0385 10.94 11.2045 10.7727L12.8864 9.09091Z" fill="#24292F"/>
</svg>
